<?xml version="1.0" encoding="utf-8"?>
<!-- Generator: Adobe Illustrator 18.0.0, SVG Export Plug-In . SVG Version: 6.00 Build 0)  -->
<!DOCTYPE svg PUBLIC "-//W3C//DTD SVG 1.1//EN" "http://www.w3.org/Graphics/SVG/1.1/DTD/svg11.dtd">
<svg version="1.1" id="Layer_1" xmlns="http://www.w3.org/2000/svg" xmlns:xlink="http://www.w3.org/1999/xlink" x="0px" y="0px"
	 viewBox="0 0 140 50" enable-background="new 0 0 140 50" xml:space="preserve">
<g>
	<g>
		<g>
			<g>
				<polygon fill="#2C4F71" points="5.5,17.7 20,17.7 20,13.2 5.5,13.2 5.5,5.2 13.2,5.2 5.7,0.4 0.4,0.4 0.4,30.6 22.2,30.6 
					22.2,25.8 5.5,25.8 				"/>
			</g>
			<polygon id="XMLID_1_" fill="#00AEEF" points="9.9,0.4 21.7,0.4 21.7,7.9 			"/>
		</g>
	</g>
	<g>
		<g>
			<path fill="#2C4F71" d="M47.8,17.1v13.8H43V18.5c0-3.3-2-5.4-5.3-5.4c-3.7,0-5.9,2.6-6.3,6v11.8h-4.8V8.8h4.8V13
				c1.6-3.1,4.4-4.4,8.1-4.4C44.7,8.6,47.8,11.8,47.8,17.1z"/>
			<path fill="#2C4F71" d="M67.5,28.2c-1.6,2-4.1,2.9-7.3,2.9c-4.8,0-7.8-2.9-7.8-6.9c0-4,3-6.6,8.4-6.6h6.7v-0.7
				c0-2.8-1.8-4.4-5.3-4.4c-2.1,0-4.3,0.7-6.5,2.2l-2-3.3c3.1-1.8,5.3-2.8,9.5-2.8c5.7,0,8.9,2.9,8.9,7.8l0,14.5h-4.7V28.2z
				 M67.4,23.1v-2h-6c-3.1,0-4.6,0.8-4.6,3c0,2,1.6,3.3,4.3,3.3C64.6,27.3,67.2,25.5,67.4,23.1z"/>
			<path fill="#2C4F71" d="M101.8,19.9c0,6.6-4.2,11.1-10.5,11.1c-3.5,0-6.2-1.4-7.8-4v3.8h-4.8V0h4.8v12.5c1.6-2.6,4.3-4,7.7-4
				C97.5,8.6,101.8,13.2,101.8,19.9z M97,19.7c0-4.1-2.8-7.1-6.7-7.1c-3.9,0-6.7,3-6.7,7.1c0,4.3,2.8,7.2,6.7,7.2
				C94.2,27,97,24,97,19.7z"/>
			<path fill="#2C4F71" d="M107,30.9V0h4.8v30.8H107z"/>
			<path fill="#2C4F71" d="M138.5,21.7h-16.7c0.7,3.4,3.4,5.5,6.9,5.5c2.4,0,4.6-0.9,6.2-2.6l2.5,2.7c-2.2,2.4-5.3,3.7-9.1,3.7
				c-6.8,0-11.3-4.5-11.3-11.2c0-6.7,4.6-11.2,11.2-11.3C135.9,8.6,139.1,13.7,138.5,21.7z M134.4,18.2c-0.2-3.6-2.5-5.7-6.1-5.7
				c-3.5,0-5.9,2.2-6.5,5.7H134.4z"/>
		</g>
		<path fill="#2C4F71" d="M4.7,38.5c1,0,1.9,0.4,2.6,1.1c0.7,0.7,1.1,1.7,1.1,2.8c0,1.2-0.4,2.1-1.1,2.9c-0.7,0.7-1.6,1.1-2.5,1.1
			S3,46,2.2,45.1v1.2H0.6V35.6h1.6V40C2.9,39,3.7,38.5,4.7,38.5z M2.2,42.5c0,0.7,0.2,1.3,0.7,1.8c0.4,0.5,1,0.7,1.6,0.7
			s1.2-0.2,1.7-0.7c0.5-0.5,0.7-1.1,0.7-1.8c0-0.7-0.2-1.3-0.7-1.8c-0.5-0.5-1-0.7-1.7-0.7c-0.6,0-1.2,0.2-1.6,0.7
			C2.4,41.1,2.2,41.7,2.2,42.5z"/>
		<path fill="#2C4F71" d="M11,49.3c-0.7,0-1.3-0.3-1.9-0.8l0.7-1.3c0.3,0.3,0.7,0.5,1,0.5c0.4,0,0.7-0.1,0.9-0.4
			c0.2-0.3,0.3-0.5,0.3-0.8c0-0.1-1-2.8-3.1-7.9h1.7l2.3,5.6l2.3-5.6H17l-3.7,9.1c-0.2,0.5-0.5,0.9-0.9,1.2
			C11.9,49.2,11.5,49.3,11,49.3z"/>
		<path fill="#2C4F71" d="M24.9,37.5c-0.5,0-0.9,0.1-1.2,0.3c-0.3,0.2-0.5,0.5-0.5,0.9c0,0.4,0.2,0.7,0.5,0.9c0.3,0.2,1,0.4,2,0.7
			c1,0.2,1.8,0.6,2.3,1.1c0.5,0.5,0.8,1.1,0.8,2s-0.3,1.6-1,2.1c-0.7,0.5-1.5,0.8-2.6,0.8c-1.6,0-3-0.5-4.2-1.6l1.1-1.3
			c1,0.9,2.1,1.3,3.2,1.3c0.5,0,1-0.1,1.3-0.4c0.3-0.2,0.5-0.5,0.5-0.9c0-0.4-0.2-0.7-0.5-0.9S25.8,42.2,25,42
			c-0.7-0.2-1.3-0.3-1.7-0.5c-0.4-0.1-0.7-0.3-1-0.6c-0.6-0.5-0.9-1.1-0.9-2.1c0-0.9,0.3-1.6,1-2.2C23.1,36.2,24,36,25,36
			c0.6,0,1.3,0.1,1.9,0.3s1.2,0.5,1.6,0.9l-0.9,1.3c-0.3-0.3-0.7-0.5-1.2-0.7C25.9,37.6,25.4,37.5,24.9,37.5z"/>
		<path fill="#2C4F71" d="M30.5,37.1c-0.2-0.2-0.3-0.4-0.3-0.7c0-0.3,0.1-0.5,0.3-0.7c0.2-0.2,0.4-0.3,0.7-0.3s0.5,0.1,0.7,0.3
			c0.2,0.2,0.3,0.4,0.3,0.7c0,0.3-0.1,0.5-0.3,0.7c-0.2,0.2-0.4,0.3-0.7,0.3S30.7,37.3,30.5,37.1z M32,46.3h-1.6v-7.7H32V46.3z"/>
		<path fill="#2C4F71" d="M35.7,46.3H34V35.6h1.6V46.3z"/>
		<path fill="#2C4F71" d="M37.8,37.1c-0.2-0.2-0.3-0.4-0.3-0.7c0-0.3,0.1-0.5,0.3-0.7c0.2-0.2,0.4-0.3,0.7-0.3
			c0.3,0,0.5,0.1,0.7,0.3c0.2,0.2,0.3,0.4,0.3,0.7c0,0.3-0.1,0.5-0.3,0.7c-0.2,0.2-0.4,0.3-0.7,0.3C38.2,37.4,38,37.3,37.8,37.1z
			 M39.3,46.3h-1.6v-7.7h1.6V46.3z"/>
		<path fill="#2C4F71" d="M44.8,46.4c-1.1,0-2-0.4-2.7-1.1c-0.8-0.7-1.2-1.7-1.2-2.8c0-1.2,0.4-2.1,1.2-2.9c0.8-0.7,1.8-1.1,2.9-1.1
			c1.2,0,2.1,0.4,2.9,1.2L47,40.9c-0.7-0.6-1.3-0.9-2-0.9c-0.7,0-1.3,0.2-1.7,0.7c-0.5,0.4-0.7,1-0.7,1.7s0.2,1.3,0.7,1.8
			c0.5,0.5,1.1,0.7,1.8,0.7c0.7,0,1.4-0.3,2-1l0.9,1C47,45.9,46,46.4,44.8,46.4z"/>
		<path fill="#2C4F71" d="M54.7,42.8v-4.1h1.6v7.7h-1.6v-1.4c-0.3,0.5-0.6,0.8-1.1,1.1c-0.5,0.3-0.9,0.4-1.5,0.4
			c-0.9,0-1.6-0.3-2.1-0.8c-0.5-0.5-0.8-1.3-0.8-2.3v-4.7h1.6v4.2c0,1.4,0.6,2.1,1.8,2.1c0.6,0,1-0.2,1.5-0.6
			C54.5,44,54.7,43.5,54.7,42.8z"/>
		<path fill="#2C4F71" d="M63.8,44c0,0.7-0.3,1.3-0.8,1.7c-0.5,0.4-1.2,0.7-2,0.7c-0.6,0-1.1-0.1-1.7-0.3c-0.6-0.2-1.1-0.5-1.6-0.8
			l0.8-1.3c0.9,0.7,1.8,1,2.6,1c0.4,0,0.7-0.1,0.9-0.3c0.2-0.2,0.3-0.4,0.3-0.6c0-0.4-0.5-0.7-1.5-1c-0.1,0-0.1,0-0.2-0.1
			c-1.6-0.4-2.4-1.2-2.4-2.2c0-0.7,0.3-1.3,0.8-1.7c0.6-0.4,1.3-0.6,2.2-0.6c0.9,0,1.7,0.3,2.5,0.8L63,40.5c-0.6-0.4-1.3-0.6-2-0.6
			c-0.4,0-0.7,0.1-0.9,0.2c-0.2,0.1-0.4,0.3-0.4,0.6c0,0.2,0.1,0.4,0.4,0.5c0.2,0.1,0.4,0.2,0.7,0.2c0.3,0.1,0.6,0.2,0.8,0.2
			c0.2,0.1,0.5,0.2,0.7,0.3c0.2,0.1,0.5,0.2,0.7,0.4C63.6,42.7,63.8,43.3,63.8,44z"/>
	</g>
</g>
</svg>
